<svg width="100" height="30" viewBox="0 0 100 30" fill="none" xmlns="http://www.w3.org/2000/svg">
<g clip-path="url(#clip0_1_55)">
<path d="M14.913 0C6.67697 0 0 6.71568 0 14.9997C0 23.2847 6.67697 30 14.913 30C23.1495 30 29.8261 23.2847 29.8261 14.9997C29.8261 6.71621 23.1498 0.000715925 14.9129 0.000715925L14.913 0ZM21.7521 21.6339C21.4842 22.0758 20.9119 22.2143 20.474 21.945C16.972 19.7922 12.5641 19.3059 7.37308 20.4987C6.87285 20.614 6.37423 20.2986 6.26026 19.7956C6.14575 19.2925 6.45792 18.7909 6.9594 18.6763C12.6402 17.37 17.513 17.9323 21.4438 20.3482C21.8819 20.6187 22.0208 21.1936 21.7519 21.6343L21.7521 21.6339ZM23.5774 17.5502C23.2401 18.1006 22.5246 18.2733 21.9781 17.9353C17.9703 15.4574 11.8591 14.7396 7.11772 16.1873C6.5028 16.3741 5.85334 16.0255 5.66671 15.4081C5.48151 14.7896 5.82824 14.1376 6.44208 13.9496C11.8581 12.2967 18.5909 13.0973 23.1943 15.9426C23.7411 16.2811 23.9138 17.0012 23.5772 17.5504L23.5774 17.5502ZM23.7341 13.2972C18.927 10.4258 10.9977 10.1617 6.40876 11.5626C5.67187 11.7874 4.89259 11.369 4.66927 10.6278C4.44596 9.88625 4.8616 9.10296 5.59903 8.87763C10.8669 7.26916 19.624 7.57992 25.1577 10.8841C25.8205 11.2798 26.0379 12.1408 25.6451 12.8066C25.2533 13.4733 24.395 13.693 23.7343 13.2972H23.7341ZM40.5735 13.8475C37.9986 13.2299 37.5402 12.7964 37.5402 11.8856C37.5402 11.0251 38.3457 10.446 39.5434 10.446C40.7045 10.446 41.8558 10.8857 43.0629 11.791C43.0994 11.8184 43.1451 11.8293 43.1902 11.8222C43.2352 11.8154 43.2751 11.7905 43.3015 11.753L44.5587 9.97044C44.6104 9.897 44.5963 9.7958 44.5267 9.73973C43.0901 8.5803 41.4724 8.01661 39.5816 8.01661C36.8014 8.01661 34.8594 9.69477 34.8594 12.0959C34.8594 14.6707 36.5346 15.5824 39.4295 16.2862C41.8934 16.857 42.3092 17.3353 42.3092 18.1902C42.3092 19.1375 41.4683 19.7265 40.1151 19.7265C38.6121 19.7265 37.3862 19.2173 36.0148 18.0227C35.9808 17.9931 35.9341 17.9797 35.891 17.9822C35.8456 17.986 35.8041 18.0071 35.7753 18.0421L34.3656 19.7295C34.3064 19.7996 34.3139 19.9042 34.3823 19.9647C35.9779 21.3975 37.9404 22.1543 40.0581 22.1543C43.054 22.1543 44.9899 20.5078 44.9899 17.9595C44.9952 15.8083 43.7148 14.6171 40.5788 13.8498L40.5735 13.8475ZM51.7676 11.2932C50.4691 11.2932 49.404 11.8077 48.5257 12.8618V11.6753C48.5257 11.5816 48.4502 11.5053 48.3572 11.5053H46.0516C45.9585 11.5053 45.8831 11.5816 45.8831 11.6753V24.8588C45.8831 24.9524 45.9585 25.0287 46.0516 25.0287H48.3572C48.4502 25.0287 48.5257 24.9524 48.5257 24.8588V20.6973C49.4042 21.6889 50.4694 22.1734 51.7676 22.1734C54.1805 22.1734 56.623 20.3052 56.623 16.7339C56.6266 13.1618 54.1833 11.293 51.7703 11.293L51.7676 11.2932ZM53.942 16.7339C53.942 18.5525 52.8283 19.8216 51.2336 19.8216C49.657 19.8216 48.4678 18.4949 48.4678 16.7339C48.4678 14.9732 49.657 13.6463 51.2336 13.6463C52.8025 13.6461 53.9422 14.9444 53.9422 16.7338L53.942 16.7339ZM62.8835 11.2932C59.7761 11.2932 57.3418 13.6999 57.3418 16.7728C57.3418 19.8123 59.7594 22.1936 62.8454 22.1936C65.9637 22.1936 68.4056 19.7951 68.4056 16.7339C68.4056 13.6834 65.9801 11.2936 62.8833 11.2936L62.8835 11.2932ZM62.8835 19.8397C61.2307 19.8397 59.9847 18.504 59.9847 16.733C59.9847 14.9546 61.1876 13.664 62.8454 13.664C64.5088 13.664 65.7632 14.9997 65.7632 16.7719C65.7632 18.55 64.5523 19.8397 62.8836 19.8397H62.8835ZM75.0411 11.5053H72.5039V8.89627C72.5039 8.80277 72.4288 8.72647 72.3357 8.72647H70.0304C69.9371 8.72647 69.8614 8.80277 69.8614 8.89627V11.5053H68.7528C68.6601 11.5053 68.5849 11.5816 68.5849 11.6753V13.6683C68.5849 13.7618 68.6601 13.8383 68.7528 13.8383H69.8614V18.9953C69.8614 21.0794 70.8927 22.136 72.9265 22.136C73.7536 22.136 74.4397 21.9642 75.0863 21.5954C75.1388 21.5658 75.1714 21.5089 75.1714 21.4484V19.5504C75.1714 19.4918 75.1411 19.4365 75.0913 19.4059C75.0411 19.3742 74.9786 19.3725 74.9271 19.3982C74.4829 19.623 74.0536 19.7267 73.5737 19.7267C72.8339 19.7267 72.5039 19.3888 72.5039 18.6317V13.8392H75.0411C75.1342 13.8392 75.2092 13.7629 75.2092 13.6692V11.6764C75.2127 11.5827 75.1379 11.5064 75.0436 11.5064L75.0411 11.5053ZM83.881 11.5155V11.1951C83.881 10.2524 84.2404 9.83198 85.0464 9.83198C85.527 9.83198 85.9131 9.92798 86.3455 10.0731C86.3987 10.0899 86.4543 10.0815 86.4976 10.0494C86.5421 10.0174 86.5672 9.96595 86.5672 9.9115V7.95732C86.5672 7.88262 86.5195 7.81653 86.4479 7.7945C85.9911 7.65782 85.4066 7.51758 84.5316 7.51758C82.4021 7.51758 81.2764 8.72376 81.2764 11.0045V11.4953H80.1687C80.0758 11.4953 79.9996 11.5716 79.9996 11.6651V13.6683C79.9996 13.7618 80.0758 13.8383 80.1687 13.8383H81.2764V21.7928C81.2764 21.8864 81.3516 21.9627 81.4445 21.9627H83.7501C83.8433 21.9627 83.9191 21.8864 83.9191 21.7928V13.8389H86.0718L89.3693 21.7914C88.995 22.6269 88.6269 22.7932 88.1244 22.7932C87.7181 22.7932 87.2904 22.6712 86.853 22.4304C86.8119 22.4077 86.7631 22.4039 86.7188 22.4177C86.6748 22.4333 86.6377 22.4663 86.619 22.5093L85.8376 24.2336C85.8004 24.3151 85.8323 24.4108 85.9103 24.4531C86.726 24.8974 87.4624 25.0871 88.3726 25.0871C90.0751 25.0871 91.016 24.2895 91.8455 22.1437L95.8454 11.7476C95.8655 11.6953 95.8595 11.6362 95.8276 11.5898C95.7959 11.5438 95.7448 11.516 95.6889 11.516H93.2887C93.2168 11.516 93.1524 11.5621 93.129 11.63L90.6702 18.694L87.9771 11.6253C87.9525 11.5596 87.8895 11.516 87.8197 11.516H83.8805L83.881 11.5155ZM78.7558 11.5053H76.4502C76.3571 11.5053 76.2812 11.5816 76.2812 11.6753V21.7928C76.2812 21.8865 76.3571 21.9628 76.4502 21.9628H78.7558C78.8488 21.9628 78.9248 21.8865 78.9248 21.7928V11.676C78.9249 11.6536 78.9205 11.6315 78.912 11.6108C78.9036 11.5902 78.8911 11.5714 78.8754 11.5556C78.8596 11.5398 78.841 11.5273 78.8204 11.5188C78.7999 11.5103 78.7779 11.5059 78.7556 11.506L78.7558 11.5053ZM77.6161 6.89857C76.7027 6.89857 75.9616 7.64225 75.9616 8.56096C75.9616 9.4802 76.7029 10.2248 77.6161 10.2248C78.5292 10.2248 79.2696 9.4802 79.2696 8.56096C79.2696 7.64244 78.5288 6.89857 77.617 6.89857H77.6161ZM97.8141 14.7583C96.9016 14.7583 96.1916 14.0212 96.1916 13.1261C96.1916 12.2311 96.9109 11.4856 97.8226 11.4856C98.7351 11.4856 99.4451 12.2225 99.4451 13.1168C99.4451 14.0119 98.7257 14.7583 97.8139 14.7583H97.8141ZM97.823 11.6479C96.9919 11.6479 96.3631 12.3124 96.3631 13.1261C96.3631 13.9395 96.9874 14.5951 97.8146 14.5951C98.6455 14.5951 99.2751 13.9311 99.2751 13.1168C99.2751 12.3035 98.65 11.6479 97.8237 11.6479H97.823ZM98.1827 13.2847L98.6417 13.9309H98.2547L97.8415 13.338H97.4863V13.9309H97.1623V12.2178H97.9219C98.3176 12.2178 98.5777 12.4215 98.5777 12.7643C98.5795 13.0452 98.4175 13.2168 98.1842 13.2847H98.1827V13.2847ZM97.9085 12.5118H97.4861V13.0536H97.9085C98.1193 13.0536 98.2452 12.9499 98.2452 12.7824C98.2452 12.6062 98.1188 12.5118 97.9087 12.5118H97.9085V12.5118Z" fill="black"/>
</g>
<defs>
<clipPath id="clip0_1_55">
<rect width="99.4451" height="30" fill="white"/>
</clipPath>
</defs>
</svg>
